<svg width="66" height="66" viewBox="0 0 66 66" fill="none" xmlns="http://www.w3.org/2000/svg">
<g clip-path="url(#clip0_3523_797)">
<path d="M13.9126 6.0154C13.9126 6.0154 14.0823 6.0154 14.1671 6.0154C17.3907 4.65982 23.0746 1.01669 32.6607 3.8973C42.2468 6.6932 45.2159 11.6919 48.3548 14.742C50.7301 17.1143 60.4859 18.6393 64.0488 21.8588C59.4679 9.15019 47.3368 0 33 0C25.874 0 19.3419 2.28755 13.9126 6.10013V6.0154Z" fill="#41D62B"/>
<path d="M65.2365 25.5866C63.2853 31.4326 62.946 39.8203 57.5167 41.3453C52.0026 42.8703 50.3059 43.7176 48.0154 48.5469C45.6401 53.4608 38.09 56.5956 33.1697 61.3402C31.8123 62.611 30.8792 64.1361 30.2005 65.6611C31.1337 65.6611 32.0668 65.8306 33 65.8306C51.2391 65.8306 66 51.0886 66 32.8729C66 30.3312 65.6607 27.8742 65.1517 25.5866H65.2365Z" fill="#2E9ADB"/>
<path d="M24.0925 64.475C21.4627 60.0693 24.2622 51.0886 24.9409 48.6316C25.365 46.8524 25.6195 42.8703 24.6864 39.4814C24.0925 38.1258 23.2442 36.8549 22.0566 35.923C18.3239 32.8729 15.6093 32.8729 13.4036 27.7048C11.1979 22.5366 9.75578 22.4519 9.58612 18.4698C9.33162 14.6573 9.75578 11.353 12.8946 6.6932C5.08997 12.7933 0 22.2824 0 32.8729C0 48.0385 10.2648 60.7471 24.2622 64.6444C24.2622 64.6444 24.2622 64.5597 24.1774 64.475H24.0925Z" fill="#FF9124"/>
</g>
<defs>
<clipPath id="clip0_3523_797">
<rect width="66" height="65.8306" fill="white"/>
</clipPath>
</defs>
</svg>
